<?xml version="1.0" encoding="iso-8859-1"?>
<!-- Generator: Adobe Illustrator 19.0.0, SVG Export Plug-In . SVG Version: 6.00 Build 0)  -->
<svg xmlns="http://www.w3.org/2000/svg" xmlns:xlink="http://www.w3.org/1999/xlink" version="1.1" id="Layer_1" x="0px" y="0px" viewBox="0 0 512 512" style="enable-background:new 0 0 512 512;" xml:space="preserve" width="512" height="512">
<g>
	<g>
		<g>
			<path style="fill:#FFD396;" d="M212,422H92V212h120V422z"/>
		</g>
	</g>
	<g>
		<path style="fill:#FFB64C;" d="M242,122v300h120V122H242z"/>
	</g>
	<rect x="287" y="122" style="fill:#FF9100;" width="75" height="300"/>
	<g>
		<g>
			<path style="fill:#FF641A;" d="M512,422H392V32h120V422z"/>
		</g>
	</g>
	<polygon style="fill:#7C8388;" points="287,452 62,452 62,0 32,0 32,32 0,32 0,62 32,62 32,92 0,92 0,122 32,122 32,152 0,152    0,182 32,182 32,212 0,212 0,242 32,242 32,272 0,272 0,302 32,302 32,332 0,332 0,362 32,362 32,392 0,392 0,422 32,422 32,452    0,452 0,482 32,482 32,512 62,512 62,482 92,482 92,512 122,512 122,482 152,482 152,512 182,512 182,482 212,482 212,512 242,512    242,482 272,482 272,512 287,512 302,512 302,482 332,482 332,512 362,512 362,482 392,482 392,512 422,512 422,482 452,482    452,512 482,512 482,482 512,482 512,452  "/>
	<polygon style="fill:#575F64;" points="512,452 287,452 287,512 302,512 302,482 332,482 332,512 362,512 362,482 392,482 392,512    422,512 422,482 452,482 452,512 482,512 482,482 512,482  "/>
</g>















</svg>
