<svg height="512pt" viewBox="-39 0 511 512" width="512pt" xmlns="http://www.w3.org/2000/svg"><path d="m67.394531 498v-184.515625c0-2.792969-2.285156-5.078125-5.078125-5.078125h-22.847656c-2.792969 0-5.078125 2.285156-5.078125 5.078125v184.515625zm0 0" fill="#ef5050"/><path d="m121.554688 498v-86.472656c0-2.789063-2.285157-5.074219-5.078126-5.074219h-22.847656c-2.792968 0-5.078125 2.285156-5.078125 5.074219v86.472656zm0 0" fill="#f7931e"/><path d="m175.714844 498v-55.210938c-9.824219-18.351562-15.410156-39.355468-15.410156-61.660156 0-1 .015624-2 .039062-3h-12.554688c-2.792968 0-5.078124 2.285156-5.078124 5.074219v114.796875zm0 0" fill="#368c0e"/><path d="m67.394531 273.402344c0 2.792968-2.285156 5.074218-5.078125 5.074218h-22.847656c-2.792969 0-5.078125-2.28125-5.078125-5.074218v-66.226563c0-2.792969 2.285156-5.074219 5.078125-5.074219h22.847656c2.792969 0 5.078125 2.28125 5.078125 5.074219zm0 0" fill="#fb8276"/><path d="m121.554688 373.492188c0 2.789062-2.285157 5.074218-5.078126 5.074218h-22.847656c-2.792968 0-5.078125-2.285156-5.078125-5.074218v-87.898438c0-2.789062 2.285157-5.074219 5.078125-5.074219h22.847656c2.792969 0 5.078126 2.285157 5.078126 5.074219zm0 0" fill="#ffc502"/><path d="m175.714844 319.4375v-12.933594c0-2.792968-2.285156-5.078125-5.078125-5.078125h-22.847657c-2.792968 0-5.078124 2.285157-5.078124 5.078125v38.390625c0 2.792969 2.285156 5.074219 5.078124 5.074219h16.28125c2.601563-10.625 6.511719-20.894531 11.644532-30.53125zm0 0" fill="#89c947"/><path d="m216.488281 164.90625c0 33.664062-27.386719 60.949219-61.164062 60.949219-33.785157 0-61.167969-27.285157-61.167969-60.949219s27.382812-60.953125 61.167969-60.953125c33.777343 0 61.164062 27.289063 61.164062 60.953125zm0 0" fill="#ffc502"/><path d="m164.558594 156.777344h-18.476563c-2.816406 0-5.109375-2.273438-5.109375-5.070313 0-2.792969 2.292969-5.0625 5.109375-5.0625h23.625c4.144531 0 7.5-3.359375 7.5-7.5 0-4.144531-3.355469-7.5-7.5-7.5h-6.882812v-4.746093c0-4.144532-3.359375-7.5-7.5-7.5-4.144531 0-7.5 3.355468-7.5 7.5v4.746093h-1.742188c-11.085937 0-20.109375 9-20.109375 20.0625 0 11.066407 9.023438 20.070313 20.109375 20.070313h18.476563c2.820312 0 5.117187 2.269531 5.117187 5.0625 0 2.792968-2.296875 5.066406-5.117187 5.066406h-27.976563c-4.140625 0-7.5 3.355469-7.5 7.5s3.359375 7.5 7.5 7.5h11.242188v2.207031c0 4.140625 3.355469 7.5 7.5 7.5 4.140625 0 7.5-3.359375 7.5-7.5v-2.207031h1.734375c11.09375 0 20.117187-9.003906 20.117187-20.066406s-9.023437-20.0625-20.117187-20.0625zm0 0" fill="#775436"/><path d="m108.753906 50.199219c0-27.722657-22.554687-50.199219-50.378906-50.199219-27.820312 0-50.375 22.476562-50.375 50.199219 0 27.722656 22.554688 50.199219 50.375 50.199219 27.824219 0 50.378906-22.476563 50.378906-50.199219zm0 0" fill="#fcdb67"/><path d="m82.863281 59.480469c0-9.523438-7.761719-17.269531-17.304687-17.269531h-14.367188c-1.269531 0-2.304687-1.023438-2.304687-2.273438s1.035156-2.269531 2.304687-2.269531h18.367188c4.144531 0 7.5-3.355469 7.5-7.5 0-4.140625-3.355469-7.5-7.5-7.5h-3.683594v-2.019531c0-4.144532-3.359375-7.5-7.5-7.5s-7.5 3.355468-7.5 7.5v2.039062c-9.394531.167969-16.988281 7.835938-16.988281 17.25 0 9.523438 7.765625 17.273438 17.304687 17.273438h14.363282c1.273437 0 2.308593 1.015624 2.308593 2.269531 0 1.25-1.035156 2.269531-2.308593 2.269531h-21.75c-4.140626 0-7.5 3.355469-7.5 7.5 0 4.140625 3.359374 7.5 7.5 7.5h7.070312v.046875c0 4.140625 3.359375 7.5 7.5 7.5s7.5-3.359375 7.5-7.5v-.0625c9.394531-.171875 16.988281-7.839844 16.988281-17.253906zm0 0" fill="#775436"/><path d="m8 497c-4.140625 0-7.5 3.355469-7.5 7.5s3.359375 7.5 7.5 7.5h280.628906c-21.722656 0-42.1875-5.425781-60.15625-15zm0 0" fill="#9ea7af"/><path d="m288.628906 512h2.238282c.257812 0 .511718-.015625.765624-.039062-1 .023437-2 .039062-3.003906.039062zm0 0" fill="#9ea7af"/><path d="m343.636719 327.5c-1.105469 0-2-.898438-2-2v-63.769531c-8.238281-3.75-16.929688-6.65625-25.976563-8.601563v-99.914062h-54.066406v99.914062c-58.441406 12.582032-102.289062 65.105469-102.289062 128 0 72.277344 57.898437 130.871094 129.324218 130.871094 71.421875 0 129.320313-58.59375 129.320313-130.871094 0-19.109375-4.054688-37.261718-11.332031-53.628906zm0 0" fill="#c5ccd3"/><path d="m343.636719 328.5c-1.65625 0-3-1.34375-3-3v-88.65625c0-.816406.328125-1.59375.914062-2.15625.558594-.542969 1.308594-.84375 2.085938-.84375h.097656c49.128906 1.625 88.851563 41.84375 90.4375 91.5625.027344.808594-.277344 1.597656-.84375 2.183594-.5625.582031-1.34375.910156-2.152344.910156zm0 0" fill="#89c947"/><path d="m361.59375 328.5h15v-87.398438c-4.816406-2.039062-9.820312-3.703124-15-4.910156zm0 0" fill="#368c0e"/><path d="m390.425781 328.5h15v-68.222656c-4.582031-4.460938-9.601562-8.460938-15-11.910156zm0 0" fill="#368c0e"/><path d="m335.511719 149.136719c0 2.792969-2.285157 5.078125-5.078125 5.078125h-83.609375c-2.792969 0-5.078125-2.285156-5.078125-5.078125v-36.773438c0-2.792969 2.285156-5.078125 5.078125-5.078125h83.609375c2.792968 0 5.078125 2.285156 5.078125 5.078125zm0 0" fill="#b3b3b3"/><path d="m377.183594 382.042969c-.566406-.582031-1.34375-.914063-2.15625-.914063h-86.398438v90.523438c23.328125 0 45.425782-9.070313 62.214844-25.539063 16.746094-16.425781 26.398438-38.398437 27.183594-61.882812.027344-.8125-.277344-1.601563-.84375-2.1875zm0 0" fill="#f7931e"/><path d="m288.628906 293.65625c0-.8125-.332031-1.589844-.917968-2.15625-.558594-.539062-1.308594-.84375-2.082032-.84375-.035156 0-.070312.003906-.105468.003906-23.210938.804688-44.925782 10.585938-61.148438 27.546875-16.25 16.988281-25.199219 39.332031-25.199219 62.921875 0 49.917969 40.128907 90.523438 89.453125 90.523438zm0 0" fill="#ef5050"/></svg>