<?xml version="1.0" encoding="iso-8859-1"?>
<!-- Generator: Adobe Illustrator 19.0.0, SVG Export Plug-In . SVG Version: 6.00 Build 0)  -->
<svg version="1.1" id="Capa_1" xmlns="http://www.w3.org/2000/svg" xmlns:xlink="http://www.w3.org/1999/xlink" x="0px" y="0px"
	 viewBox="0 0 512 512" style="enable-background:new 0 0 512 512;" xml:space="preserve">
<path style="fill:#EFEFEF;" d="M398.666,200.766c0,26.218-21.233,47.472-47.425,47.472s-47.426-21.254-47.426-47.472
	c0,26.218-21.233,47.472-47.426,47.472s-47.425-21.254-47.425-47.472c0,26.218-21.233,47.472-47.426,47.472
	c-26.192,0-47.425-21.254-47.425-47.472c0,26.218-21.233,47.472-47.426,47.472c-8.36,0-16.21-2.173-23.03-5.974v140.448h425.465
	V242.264c-6.82,3.801-14.67,5.974-23.03,5.974C419.899,248.239,398.666,226.984,398.666,200.766z"/>
<path style="fill:#DDDDDD;" d="M98.257,236.183c-8.385,7.494-19.443,12.056-31.569,12.056c-8.36,0-16.21-2.173-23.03-5.974v140.448
	h54.6L98.257,236.183L98.257,236.183z"/>
<rect x="43.657" y="376.02" style="fill:#647892;" width="425.46" height="111.26"/>
<rect x="43.657" y="376.02" style="fill:#4D6682;" width="54.6" height="111.26"/>
<path style="fill:#FC5B6F;" d="M463.638,70.052H49.141c-3.029,0-5.484-2.455-5.484-5.484V5.484C43.657,2.455,46.113,0,49.141,0
	h414.496c3.029,0,5.484,2.455,5.484,5.484v59.084C469.122,67.597,466.666,70.052,463.638,70.052z"/>
<path style="fill:#F74352;" d="M99.287,64.568V5.484c0-3.029,2.455-5.484,5.484-5.484h-55.63c-3.029,0-5.484,2.455-5.484,5.484
	v59.084c0,3.029,2.455,5.484,5.484,5.484h55.63C101.742,70.052,99.287,67.597,99.287,64.568z"/>
<path style="fill:#C88551;" d="M181.437,244.668c-6.177,2.947-13.089,4.601-20.388,4.601s-14.211-1.654-20.387-4.601h-54.14
	c-4.95,2.356-10.367,3.89-16.081,4.4v236.147h138.044V252.17c0-4.143-3.359-7.502-7.502-7.502H181.437z"/>
<path style="fill:#BB683C;" d="M98.257,244.668H86.522c-4.95,2.356-10.367,3.89-16.081,4.4v236.147h27.815L98.257,244.668
	L98.257,244.668z"/>
<path style="fill:#647892;" d="M200.985,244.668h-19.548c-6.177,2.947-13.089,4.601-20.388,4.601s-14.211-1.654-20.387-4.601h-54.14
	c-4.95,2.356-10.367,3.89-16.081,4.4v54.835h138.044V252.17C208.486,248.027,205.127,244.668,200.985,244.668z"/>
<path style="fill:#4D6682;" d="M86.522,244.668c-4.95,2.356-10.367,3.89-16.081,4.4v54.835h27.815v-59.235L86.522,244.668
	L86.522,244.668z"/>
<rect x="70.441" y="268.36" style="fill:#7D93AA;" width="138.04" height="15.453"/>
<rect x="70.441" y="268.36" style="fill:#647892;" width="27.815" height="15.453"/>
<path style="fill:#48AEF9;" d="M432.233,456.37H242.284c-2.736,0-4.953-2.218-4.953-4.953V281.042c0-2.736,2.218-4.953,4.953-4.953
	h189.948c2.736,0,4.953,2.218,4.953,4.953v170.375C437.186,454.153,434.969,456.37,432.233,456.37z"/>
<path style="fill:#3997EE;" d="M271.327,451.417V281.042c0-2.736,2.218-4.953,4.953-4.953h-33.996c-2.735,0-4.953,2.218-4.953,4.953
	v170.375c0,2.736,2.218,4.953,4.953,4.953h33.996C273.545,456.37,271.327,454.153,271.327,451.417z"/>
<g>
	<path style="fill:#C7CFD9;" d="M393.855,373.637c-1.755,0-3.519-0.595-4.967-1.812l-42.337-35.581
		c-3.267-2.746-3.69-7.619-0.944-10.885c2.745-3.268,7.619-3.689,10.886-0.944l42.337,35.581c3.267,2.746,3.689,7.619,0.944,10.885
		C398.246,372.7,396.058,373.637,393.855,373.637z"/>
	<path style="fill:#C7CFD9;" d="M280.963,373.637c-2.266,0-4.51-0.991-6.036-2.897c-2.667-3.331-2.129-8.193,1.202-10.86
		l44.437-35.58c3.33-2.667,8.193-2.13,10.86,1.202c2.667,3.331,2.129,8.193-1.202,10.86l-44.436,35.58
		C284.363,373.082,282.657,373.637,280.963,373.637z"/>
</g>
<path style="fill:#F5EEDD;" d="M338.289,342.535c-11.645,0-21.119-9.474-21.119-21.119s9.474-21.119,21.119-21.119
	s21.119,9.474,21.119,21.119S349.934,342.535,338.289,342.535z M338.289,315.75c-3.124,0-5.666,2.541-5.666,5.666
	s2.542,5.666,5.666,5.666s5.666-2.541,5.666-5.666S341.413,315.75,338.289,315.75z"/>
<path style="fill:#E4A970;" d="M178.611,383.742h-4.121c-4.267,0-7.726-3.459-7.726-7.726c0-4.268,3.459-7.726,7.726-7.726h4.121
	c4.267,0,7.726,3.459,7.726,7.726C186.337,380.284,182.878,383.742,178.611,383.742z"/>
<path style="fill:#FC5B6F;" d="M399.923,360.563H274.594c-1.804,0-3.267,1.463-3.267,3.267v53.217c0,1.804,1.463,3.267,3.267,3.267
	h125.329c1.804,0,3.267-1.463,3.267-3.267V363.83C403.19,362.026,401.728,360.563,399.923,360.563z"/>
<path style="fill:#F74352;" d="M303.668,417.047V363.83c0-1.804,1.463-3.267,3.267-3.267h-32.341c-1.804,0-3.267,1.463-3.267,3.267
	v53.217c0,1.804,1.463,3.267,3.267,3.267h32.341C305.131,420.314,303.668,418.851,303.668,417.047z"/>
<path style="fill:#F991A2;" d="M375.375,398.165h-75.203c-4.267,0-7.726-3.459-7.726-7.726c0-4.268,3.459-7.726,7.726-7.726h75.203
	c4.267,0,7.726,3.459,7.726,7.726C383.102,394.706,379.643,398.165,375.375,398.165z"/>
<path style="fill:#FC5B6F;" d="M300.172,382.712c-4.267,0-7.726,3.459-7.726,7.726c0,4.268,3.459,7.726,7.726,7.726h3.496v-15.453
	L300.172,382.712L300.172,382.712z"/>
<rect x="18.933" y="88.6" style="fill:#FAC149;" width="94.78" height="99.93"/>
<rect x="18.933" y="88.6" style="fill:#F8A748;" width="47.39" height="99.93"/>
<rect x="113.711" y="88.6" style="fill:#FE8D3F;" width="94.78" height="99.93"/>
<rect x="208.491" y="88.6" style="fill:#FAC149;" width="94.78" height="99.93"/>
<rect x="303.261" y="88.6" style="fill:#FE8D3F;" width="94.78" height="99.93"/>
<rect x="398.041" y="88.6" style="fill:#FAC149;" width="94.78" height="99.93"/>
<path style="fill:#EFEFEF;" d="M494.265,88.596H17.737l0,0c0-14.793,11.992-26.785,26.785-26.785h422.959
	C482.273,61.811,494.265,73.803,494.265,88.596L494.265,88.596z"/>
<path style="fill:#DDDDDD;" d="M100.999,61.811H44.522c-14.793,0-26.785,11.992-26.785,26.785h56.477
	C74.214,73.803,86.206,61.811,100.999,61.811z"/>
<path style="fill:#FE8D3F;" d="M18.933,186.463v16.304c0,26.688,21.671,48.783,48.354,48.249
	c25.726-0.515,46.423-21.568,46.423-47.463v-17.091H18.933V186.463z"/>
<path style="fill:#FF7631;" d="M66.321,202.767v-16.304H18.933v16.304c0,26.688,21.671,48.783,48.354,48.249
	c8.326-0.167,16.118-2.495,22.86-6.432C75.896,236.198,66.321,220.502,66.321,202.767z"/>
<path style="fill:#FAC149;" d="M113.709,186.463v16.305c0,26.688,21.671,48.783,48.354,48.249
	c25.726-0.515,46.423-21.568,46.423-47.463v-17.091H113.709z"/>
<path style="fill:#FE8D3F;" d="M208.486,186.463v16.304c0,26.688,21.671,48.783,48.354,48.249
	c25.726-0.515,46.423-21.568,46.423-47.463v-17.091h-94.777V186.463z"/>
<path style="fill:#FAC149;" d="M303.263,186.463v16.304c0,26.688,21.671,48.783,48.354,48.249
	c25.726-0.515,46.423-21.568,46.423-47.463v-17.091h-94.777V186.463z"/>
<path style="fill:#FE8D3F;" d="M398.039,186.463v16.304c0,26.688,21.671,48.783,48.353,48.249
	c25.726-0.515,46.423-21.568,46.423-47.463v-17.091h-94.776V186.463z"/>
<path style="fill:#EFEFEF;" d="M495.089,512H16.913c-7.396,0-13.392-5.996-13.392-13.392l0,0c0-7.396,5.996-13.392,13.392-13.392
	h478.175c7.396,0,13.392,5.996,13.392,13.392l0,0C508.481,506.004,502.485,512,495.089,512z"/>
<g>
	<path style="fill:#DDDDDD;" d="M84.349,498.608c0-7.396,5.996-13.392,13.392-13.392H16.913c-7.397,0-13.392,5.996-13.392,13.392
		S9.517,512,16.913,512h80.828C90.345,512,84.349,506.004,84.349,498.608z"/>
	<path style="fill:#DDDDDD;" d="M494.876,96.322H16.872c-4.267,0-7.726-3.459-7.726-7.726s3.459-7.726,7.726-7.726h478.004
		c4.267,0,7.726,3.459,7.726,7.726C502.603,92.863,499.144,96.322,494.876,96.322z"/>
</g>
<path style="fill:#CECCCA;" d="M68.038,88.596c0-4.267,3.459-7.726,7.726-7.726H16.872c-4.267,0-7.726,3.459-7.726,7.726
	s3.459,7.726,7.726,7.726h58.892C71.497,96.322,68.038,92.863,68.038,88.596z"/>
<g>
</g>
<g>
</g>
<g>
</g>
<g>
</g>
<g>
</g>
<g>
</g>
<g>
</g>
<g>
</g>
<g>
</g>
<g>
</g>
<g>
</g>
<g>
</g>
<g>
</g>
<g>
</g>
<g>
</g>
</svg>
